<mxfile host="app.diagrams.net" modified="2023-06-15T01:44:34.493Z" agent="Mozilla/5.0 (Macintosh; Intel Mac OS X 10_15_7) AppleWebKit/605.1.15 (KHTML, like Gecko) Version/16.4 Safari/605.1.15" version="21.4.0" etag="fvgzHWxKaIYcBGfHkrgN" type="github">
  <diagram name="PÃ¡gina-1" id="0qv7TnouW2YOGkXaKdoj">
    <mxGraphModel>
      <root>
        <mxCell id="0" />
        <mxCell id="1" parent="0" />
      </root>
    </mxGraphModel>
  </diagram>
</mxfile>
